<svg width="56" height="56" viewBox="0 0 56 56" fill="none" xmlns="http://www.w3.org/2000/svg">
<circle cx="28" cy="28" r="28" fill="#F2F3F5"/>
<path d="M39.2768 35.9095C38.3568 35.9095 37.6102 35.147 37.6102 34.2075V26.2181C37.6102 20.8056 33.3001 16.4041 28.0001 16.4041C22.7 16.4041 18.39 20.8056 18.39 26.2181V34.2075C18.39 35.147 17.6433 35.9095 16.7233 35.9095C15.8033 35.9095 15.0566 35.147 15.0566 34.2075V26.2181C15.0566 18.9299 20.8634 13 28.0001 13C35.1368 13 40.9435 18.9299 40.9435 26.2181V34.2075C40.9435 35.147 40.1968 35.9095 39.2768 35.9095Z" fill="#00D27B"/>
<path d="M39.3268 24.084C41.0535 24.084 42.5768 24.9793 43.4769 26.3375C44.0169 27.1545 44.3302 28.1383 44.3302 29.1969C44.3302 32.0189 42.0902 34.3099 39.3235 34.3099V24.0874L39.3268 24.084Z" fill="#00D27B"/>
<path d="M39.3266 36.0118C38.4066 36.0118 37.6599 35.2493 37.6599 34.3098V24.0873C37.6599 23.1478 38.4066 22.3853 39.3266 22.3853C41.5466 22.3853 43.6133 23.5086 44.86 25.3877C45.6066 26.5144 46 27.8318 46 29.1968C46 32.955 43.0066 36.0118 39.3266 36.0118ZM40.9933 26.2421V32.1516C41.9933 31.5627 42.6666 30.4598 42.6666 29.1968C42.6666 28.5126 42.47 27.8556 42.0966 27.2906C41.8066 26.8514 41.4266 26.4974 40.9933 26.2421Z" fill="#00D27B"/>
<path d="M16.6735 24.084C13.9101 24.084 11.6667 26.3715 11.6667 29.1969C11.6667 32.0223 13.9068 34.3099 16.6735 34.3099V24.0874V24.084Z" fill="#00D27B"/>
<path d="M16.6734 36.0118C12.9934 36.0118 10 32.955 10 29.1968C10 25.4387 12.9934 22.3818 16.6734 22.3818C17.5934 22.3818 18.3401 23.1444 18.3401 24.0839V34.3064C18.3401 35.2459 17.5934 36.0084 16.6734 36.0084V36.0118ZM15.0067 26.2421C14.0067 26.831 13.3334 27.9339 13.3334 29.1968C13.3334 30.4598 14.0067 31.5593 15.0067 32.1516V26.2421Z" fill="#00D27B"/>
<path d="M27.9998 43C26.0131 43 24.1465 42.2102 22.7431 40.7771C22.0931 40.1133 22.0931 39.0342 22.7431 38.3704C23.3931 37.7066 24.4498 37.7066 25.0998 38.3704C26.6998 40.0044 29.3032 40.0044 30.8999 38.3704C31.5499 37.7066 32.6065 37.7066 33.2565 38.3704C33.9065 39.0342 33.9065 40.1133 33.2565 40.7771C31.8532 42.2102 29.9865 43 27.9998 43Z" fill="#C9CCD4"/>
</svg>
