<svg width="24" height="24" viewBox="0 0 24 24" fill="none" xmlns="http://www.w3.org/2000/svg">
<path fill-rule="evenodd" clip-rule="evenodd" d="M3.468 8.59008C3 9.4992 3 10.5984 3 11.5949V13.056C3 16.8 3 18.673 4.0548 19.8365C5.1096 21 6.8061 21 10.2 21H13.8C17.1939 21 18.8913 21 19.9452 19.8365C20.9991 18.673 21 16.801 21 13.056V11.5958C21 10.5984 21 9.50016 20.532 8.59008C20.0658 7.67904 19.2117 7.11456 17.5044 5.98368L15.7044 4.79232C13.8999 3.59712 12.9972 3 12 3C11.0028 3 10.101 3.59712 8.2956 4.79232L6.4956 5.98368C4.7883 7.11456 3.9351 7.67904 3.468 8.59008ZM11.325 17.16C11.325 17.351 11.3961 17.5341 11.5227 17.6691C11.6493 17.8041 11.821 17.88 12 17.88C12.179 17.88 12.3507 17.8041 12.4773 17.6691C12.6039 17.5341 12.675 17.351 12.675 17.16V14.28C12.675 14.089 12.6039 13.9059 12.4773 13.7709C12.3507 13.6359 12.179 13.56 12 13.56C11.821 13.56 11.6493 13.6359 11.5227 13.7709C11.3961 13.9059 11.325 14.089 11.325 14.28V17.16Z" fill="black"/>
</svg>
