<svg width="56" height="56" viewBox="0 0 56 56" fill="none" xmlns="http://www.w3.org/2000/svg">
<circle cx="28" cy="28" r="28" fill="#F2F3F5"/>
<path d="M40.7127 15.817C40.7127 14.2668 39.4459 13 37.8958 13H24.0509L16 21.0509V40.183C16 41.7332 17.2668 43 18.817 43H37.8958C39.4459 43 40.7127 41.7332 40.7127 40.183V15.817Z" fill="#5BADFB"/>
<path d="M21.2339 21.0509C22.7841 21.0509 24.0509 19.7841 24.0509 18.2339V13L16 21.0509H21.2339Z" fill="#B4DAFD"/>
<path d="M34.7552 36.8994H21.9604C21.2237 36.8994 20.627 36.3027 20.627 35.5659C20.627 34.8292 21.2237 34.2324 21.9604 34.2324H34.7552C35.4919 34.2324 36.0887 34.8292 36.0887 35.5659C36.0887 36.3027 35.4919 36.8994 34.7552 36.8994Z" fill="white"/>
<path d="M34.7552 30.6689H21.9604C21.2237 30.6689 20.627 30.0722 20.627 29.3354C20.627 28.5987 21.2237 28.002 21.9604 28.002H34.7552C35.4919 28.002 36.0887 28.5987 36.0887 29.3354C36.0887 30.0722 35.4919 30.6689 34.7552 30.6689Z" fill="white"/>
</svg>
