<svg width="56" height="56" viewBox="0 0 56 56" fill="none" xmlns="http://www.w3.org/2000/svg">
<circle cx="28" cy="28" r="28" fill="#F2F3F5"/>
<path d="M26.936 13.0366C35.6992 12.4333 42.9993 19.363 42.9995 27.9995L42.9956 27.9966C42.9956 32.6265 40.8962 36.7632 37.603 39.5132L40.6089 41.4565C41.3122 41.9099 40.9924 42.9995 40.1558 42.9995H27.9995C19.3629 42.9995 12.4333 35.7027 13.0366 26.936C13.5468 19.5396 19.5396 13.5466 26.936 13.0366ZM28.4985 26.0864C26.9087 25.73 25.5192 27.1235 25.8726 28.7134C26.0526 29.5133 26.6987 30.1603 27.4985 30.3403C29.0852 30.6937 30.4759 29.303 30.1226 27.7163C29.9458 26.9164 29.2984 26.2703 28.4985 26.0903V26.0864ZM21.7505 26.0874C20.1638 25.7341 18.7731 27.1238 19.1265 28.7104C19.3032 29.5104 19.9505 30.1574 20.7505 30.3374C22.3403 30.6937 23.7297 29.3003 23.3765 27.7104C23.1965 26.9105 22.5504 26.2636 21.7505 26.0835V26.0874ZM35.2446 26.0864C33.6547 25.7331 32.2652 27.1229 32.6216 28.7095C32.8016 29.5094 33.4444 30.1563 34.2476 30.3364C35.8375 30.6897 37.2281 29.2999 36.8716 27.7134C36.6916 26.9134 36.0479 26.2665 35.2446 26.0864Z" fill="#5BADFB"/>
</svg>
