<svg width="32" height="32" viewBox="0 0 32 32" fill="none" xmlns="http://www.w3.org/2000/svg">
<path d="M16 11.5556V20.4444M11.5556 16H20.4444M11.3333 26H20.6667C22.5335 26 23.4669 26 24.18 25.6367C24.8072 25.3171 25.3171 24.8072 25.6367 24.18C26 23.4669 26 22.5335 26 20.6667V11.3333C26 9.46649 26 8.53307 25.6367 7.82003C25.3171 7.19282 24.8072 6.68289 24.18 6.36331C23.4669 6 22.5335 6 20.6667 6H11.3333C9.46649 6 8.53307 6 7.82003 6.36331C7.19282 6.68289 6.68289 7.19282 6.36331 7.82003C6 8.53307 6 9.46649 6 11.3333V20.6667C6 22.5335 6 23.4669 6.36331 24.18C6.68289 24.8072 7.19282 25.3171 7.82003 25.6367C8.53307 26 9.46649 26 11.3333 26Z" stroke="black" stroke-width="1.5" stroke-linecap="round" stroke-linejoin="round"/>
</svg>
