<svg width="40" height="40" viewBox="0 0 40 40" fill="none" xmlns="http://www.w3.org/2000/svg">
<path d="M31.6667 5H8.33333C6.49238 5 5 6.49238 5 8.33333V31.6667C5 33.5076 6.49238 35 8.33333 35H31.6667C33.5076 35 35 33.5076 35 31.6667V8.33333C35 6.49238 33.5076 5 31.6667 5Z" stroke="#C9CCD4" stroke-width="1.5" stroke-linecap="round" stroke-linejoin="round"/>
<path d="M14.1667 16.667C15.5475 16.667 16.6667 15.5477 16.6667 14.167C16.6667 12.7863 15.5475 11.667 14.1667 11.667C12.786 11.667 11.6667 12.7863 11.6667 14.167C11.6667 15.5477 12.786 16.667 14.1667 16.667Z" stroke="#C9CCD4" stroke-width="1.5" stroke-linecap="round" stroke-linejoin="round"/>
<path d="M34.9999 25.0003L26.6666 16.667L8.33325 35.0003" stroke="#C9CCD4" stroke-width="1.5" stroke-linecap="round" stroke-linejoin="round"/>
</svg>
